<svg xmlns="http://www.w3.org/2000/svg" id="Layer_1" viewBox="0 0 235.05 19.01"><defs><style>.cls-1{fill-rule:evenodd;}.cls-1,.cls-2{fill:#fff;}</style></defs><path class="cls-2" d="M148.61,19.01c-2.36,0-4.15-.63-5.39-1.9-1.21-1.27-1.87-3.02-1.95-5.26-.02-.48-.03-1.25-.03-2.32s0-1.88.03-2.38c.09-2.22.75-3.96,1.98-5.23,1.23-1.29,3.02-1.93,5.36-1.93,1.57,0,2.9.28,3.99.85,1.09.55,1.92,1.27,2.48,2.17.56.9.87,1.86.92,2.88v.05c0,.14-.06.26-.18.37-.1.09-.23.13-.37.13h-1.45c-.35,0-.57-.2-.66-.61-.3-1.32-.84-2.24-1.61-2.77-.77-.55-1.81-.82-3.12-.82-3.03,0-4.6,1.68-4.7,5.04-.02.48-.03,1.21-.03,2.19s0,1.73.03,2.24c.11,3.36,1.67,5.04,4.7,5.04,1.3,0,2.34-.26,3.12-.79.79-.55,1.33-1.48,1.61-2.8.05-.23.13-.39.24-.48.11-.09.25-.13.42-.13h1.45c.16,0,.29.05.4.16.12.09.18.21.16.37-.05,1.04-.36,2.01-.92,2.9-.56.9-1.39,1.63-2.48,2.19-1.09.55-2.42.82-3.99.82Z"></path><path class="cls-2" d="M161.84,19.01c-.86,0-1.66-.18-2.4-.53-.74-.35-1.33-.83-1.77-1.43-.42-.62-.63-1.29-.63-2.03,0-1.16.48-2.11,1.43-2.85.97-.76,2.27-1.25,3.91-1.48l3.93-.55v-.77c0-1.8-1.03-2.69-3.09-2.69-.77,0-1.41.17-1.9.5-.49.32-.86.7-1.11,1.14-.05.16-.12.27-.21.34-.07.07-.18.11-.32.11h-1.13c-.16,0-.3-.05-.42-.16-.1-.12-.16-.26-.16-.42.02-.42.21-.9.58-1.43.39-.55.98-1.01,1.77-1.4.79-.4,1.77-.61,2.93-.61,1.97,0,3.39.47,4.25,1.4.86.92,1.29,2.06,1.29,3.43v8.56c0,.18-.06.33-.19.45-.1.11-.25.16-.42.16h-1.21c-.18,0-.33-.05-.45-.16-.11-.12-.16-.27-.16-.45v-1.14c-.39.56-.95,1.04-1.69,1.43-.74.39-1.68.58-2.83.58ZM162.4,17.03c1.15,0,2.08-.37,2.8-1.11.74-.76,1.11-1.84,1.11-3.25v-.74l-3.06.45c-1.25.18-2.19.48-2.82.9-.63.4-.95.92-.95,1.56,0,.7.29,1.25.87,1.64.58.37,1.27.55,2.06.55Z"></path><path class="cls-2" d="M172.03,18.75c-.18,0-.33-.05-.45-.16-.11-.12-.16-.27-.16-.45V.61c0-.18.05-.32.16-.42.12-.12.27-.18.45-.18h1.24c.18,0,.32.06.42.18.12.11.18.25.18.42v17.53c0,.18-.06.33-.18.45-.11.11-.25.16-.42.16h-1.24Z"></path><path class="cls-2" d="M182.18,19.01c-1.88,0-3.36-.53-4.44-1.58-1.06-1.07-1.62-2.57-1.69-4.49l-.03-1.06.03-1.06c.07-1.92.63-3.41,1.69-4.46,1.07-1.07,2.55-1.61,4.44-1.61,1.27,0,2.34.23,3.22.69.88.46,1.53,1.02,1.95,1.69.44.67.68,1.34.71,2.01.02.18-.03.32-.16.42-.12.11-.27.16-.45.16h-1.27c-.18,0-.31-.04-.4-.11-.09-.07-.18-.21-.26-.42-.3-.85-.72-1.44-1.27-1.8-.55-.37-1.23-.55-2.06-.55-1.09,0-1.96.34-2.61,1.03-.63.67-.98,1.7-1.03,3.09l-.03.95.03.9c.05,1.41.4,2.45,1.03,3.12.63.67,1.5,1,2.61,1,.83,0,1.51-.18,2.06-.53.55-.37.97-.98,1.27-1.82.09-.21.18-.35.26-.42.09-.09.22-.13.4-.13h1.27c.18,0,.32.06.45.18.12.11.18.25.16.42-.03.65-.27,1.32-.71,2.01-.42.67-1.07,1.23-1.95,1.69-.86.46-1.94.69-3.22.69Z"></path><path class="cls-2" d="M195.14,19.01c-1.67,0-2.97-.54-3.88-1.61-.92-1.09-1.37-2.54-1.37-4.33v-7.45c0-.18.05-.32.16-.42.12-.12.27-.18.45-.18h1.32c.18,0,.32.06.42.18.12.11.19.25.19.42v7.32c0,2.62,1.14,3.93,3.43,3.93,1.11,0,1.99-.34,2.64-1.03.65-.7.98-1.67.98-2.9v-7.32c0-.18.05-.32.16-.42.12-.12.27-.18.45-.18h1.32c.18,0,.32.06.42.18.11.11.16.25.16.42v12.52c0,.18-.05.33-.16.45-.11.11-.25.16-.42.16h-1.24c-.18,0-.33-.05-.45-.16-.1-.12-.16-.27-.16-.45v-1.16c-.49.67-1.09,1.18-1.8,1.53-.7.33-1.58.5-2.61.5Z"></path><path class="cls-2" d="M205.34,18.75c-.18,0-.32-.05-.45-.16-.1-.12-.16-.27-.16-.45V.61c0-.18.05-.32.16-.42.12-.12.27-.18.45-.18h1.24c.18,0,.32.06.42.18.12.11.18.25.18.42v17.53c0,.18-.06.33-.18.45-.11.11-.25.16-.42.16h-1.24Z"></path><path class="cls-2" d="M215.07,19.01c-1.67,0-2.97-.54-3.88-1.61-.92-1.09-1.37-2.54-1.37-4.33v-7.45c0-.18.05-.32.16-.42.12-.12.27-.18.45-.18h1.32c.18,0,.32.06.42.18.12.11.19.25.19.42v7.32c0,2.62,1.14,3.93,3.43,3.93,1.11,0,1.99-.34,2.64-1.03.65-.7.98-1.67.98-2.9v-7.32c0-.18.05-.32.16-.42.12-.12.27-.18.45-.18h1.32c.18,0,.32.06.42.18.11.11.16.25.16.42v12.52c0,.18-.05.33-.16.45-.11.11-.25.16-.42.16h-1.24c-.18,0-.33-.05-.45-.16-.1-.12-.16-.27-.16-.45v-1.16c-.49.67-1.09,1.18-1.8,1.53-.7.33-1.58.5-2.61.5Z"></path><path class="cls-2" d="M229.39,19.01c-1.23,0-2.27-.19-3.12-.58-.83-.41-1.45-.86-1.88-1.37-.4-.51-.61-.93-.61-1.27,0-.18.06-.31.18-.4.14-.11.28-.16.42-.16h1.19c.18,0,.33.09.48.26.42.49.88.88,1.37,1.16.49.28,1.15.42,1.98.42.92,0,1.65-.18,2.22-.53.58-.37.87-.87.87-1.51,0-.42-.12-.77-.37-1.03-.23-.28-.63-.52-1.21-.71-.56-.21-1.41-.44-2.54-.69-1.53-.33-2.62-.82-3.27-1.45-.63-.63-.95-1.45-.95-2.46,0-.67.19-1.3.58-1.9.4-.62.99-1.11,1.74-1.48.77-.39,1.7-.58,2.77-.58s2.09.18,2.88.55c.79.37,1.38.81,1.77,1.32.4.49.61.91.61,1.24,0,.16-.06.29-.18.4-.11.11-.24.16-.4.16h-1.11c-.21,0-.39-.09-.53-.26-.28-.33-.53-.59-.74-.77-.19-.19-.48-.36-.87-.5-.37-.14-.85-.21-1.43-.21-.85,0-1.5.18-1.96.55-.46.35-.69.82-.69,1.4,0,.37.1.69.29.95.19.25.56.48,1.11.69.56.21,1.37.43,2.43.66,1.67.35,2.85.86,3.54,1.53.7.65,1.06,1.49,1.06,2.51,0,.76-.22,1.44-.66,2.06-.44.62-1.09,1.1-1.95,1.45-.85.35-1.86.53-3.04.53Z"></path><path class="cls-2" d="M36.17,18.75c-.18,0-.33-.06-.45-.18-.12-.12-.18-.27-.18-.45V.93c0-.19.05-.35.16-.48.12-.12.28-.18.48-.18h11.62c.19,0,.35.06.48.18.12.12.18.28.18.48v1.74c0,.19-.06.35-.18.48-.12.11-.28.16-.48.16h-8.69v4.67h8.11c.19,0,.35.06.48.18.12.11.18.26.18.45v1.64c0,.19-.06.35-.18.48-.12.11-.28.16-.48.16h-8.11v4.83h8.9c.19,0,.35.06.48.18.12.12.18.28.18.48v1.74c0,.19-.06.35-.18.48-.12.11-.28.16-.48.16h-11.83Z"></path><path class="cls-2" d="M51.38,18.75c-.18,0-.33-.06-.45-.18-.12-.12-.18-.27-.18-.45V.63c0-.19.06-.34.18-.45.12-.12.27-.18.45-.18h2.19c.19,0,.34.06.45.18.12.11.18.26.18.45v17.48c0,.18-.06.33-.18.45-.11.12-.26.18-.45.18h-2.19Z"></path><path class="cls-2" d="M62.7,19.01c-1.95,0-3.51-.56-4.67-1.69-1.14-1.14-1.75-2.75-1.82-4.81l-.03-.66.03-.66c.09-2.01.7-3.58,1.85-4.73,1.16-1.14,2.71-1.72,4.65-1.72,2.08,0,3.68.63,4.81,1.9,1.14,1.27,1.72,2.96,1.72,5.07v.55c0,.18-.06.33-.18.45-.12.12-.28.18-.48.18h-8.77v.21c.04.97.3,1.79.79,2.46.51.65,1.21.98,2.09.98,1.04,0,1.87-.41,2.51-1.21.16-.19.28-.32.37-.37.11-.05.26-.08.45-.08h2.27c.16,0,.29.05.4.16.12.09.18.2.18.34,0,.42-.26.92-.77,1.51-.49.56-1.21,1.06-2.14,1.48-.93.42-2.02.63-3.25.63ZM65.64,10.7v-.08c0-1.04-.26-1.88-.79-2.51-.51-.63-1.22-.95-2.14-.95s-1.63.32-2.14.95c-.51.63-.77,1.47-.77,2.51v.08h5.84Z"></path><path class="cls-2" d="M77.05,19.01c-1.94,0-3.49-.54-4.65-1.61-1.14-1.07-1.75-2.56-1.82-4.46l-.03-1.06.03-1.06c.07-1.9.68-3.39,1.82-4.46,1.16-1.07,2.71-1.61,4.65-1.61,1.37,0,2.54.25,3.49.74.97.49,1.68,1.1,2.14,1.82.48.7.73,1.37.77,2.01.02.18-.04.33-.18.45-.12.12-.27.18-.45.18h-2.32c-.18,0-.32-.04-.42-.11-.09-.09-.18-.23-.26-.42-.26-.69-.62-1.18-1.06-1.48-.42-.3-.97-.45-1.64-.45-.9,0-1.6.29-2.11.87-.51.56-.78,1.43-.82,2.59l-.03.98.03.87c.07,2.31,1.05,3.46,2.93,3.46.69,0,1.24-.15,1.66-.45.42-.3.77-.79,1.03-1.48.09-.19.18-.33.26-.4.11-.09.25-.13.42-.13h2.32c.18,0,.33.06.45.18.14.12.2.27.18.45-.04.62-.28,1.28-.74,1.98-.46.7-1.16,1.31-2.11,1.82-.95.51-2.13.77-3.54.77Z"></path><path class="cls-2" d="M91.47,18.75c-1.6,0-2.81-.41-3.62-1.24-.79-.84-1.19-2.08-1.19-3.7v-5.99h-2.09c-.18,0-.33-.06-.45-.18-.12-.14-.18-.3-.18-.48v-1.51c0-.18.06-.33.18-.45.12-.12.27-.18.45-.18h2.09V.63c0-.19.06-.34.18-.45.12-.12.27-.18.45-.18h2.14c.19,0,.34.06.45.18.12.11.18.26.18.45v4.38h3.3c.19,0,.34.06.45.18.12.11.18.26.18.45v1.51c0,.19-.06.35-.18.48-.12.12-.27.18-.45.18h-3.3v5.73c0,.76.13,1.33.4,1.72.26.39.7.58,1.32.58h1.82c.18,0,.33.06.45.18.12.12.18.27.18.45v1.64c0,.18-.06.33-.18.45-.11.12-.26.18-.45.18h-2.14Z"></path><path class="cls-2" d="M101.74,19.01c-2.06,0-3.65-.53-4.78-1.58-1.13-1.07-1.73-2.54-1.82-4.38l-.03-1.16.03-1.16c.09-1.83.7-3.28,1.85-4.36,1.14-1.07,2.73-1.61,4.75-1.61s3.61.54,4.75,1.61c1.14,1.07,1.76,2.53,1.85,4.36.02.21.03.6.03,1.16s0,.95-.03,1.16c-.09,1.85-.7,3.31-1.82,4.38-1.13,1.06-2.72,1.58-4.78,1.58ZM101.74,16.4c.93,0,1.65-.29,2.16-.87.51-.6.79-1.47.85-2.61.02-.18.03-.52.03-1.03s0-.85-.03-1.03c-.05-1.14-.33-2.01-.85-2.59-.51-.6-1.23-.9-2.16-.9s-1.66.3-2.17.9c-.51.58-.79,1.44-.84,2.59l-.03,1.03.03,1.03c.05,1.14.33,2.02.84,2.61.51.58,1.23.87,2.17.87Z"></path><path class="cls-2" d="M111,18.75c-.18,0-.33-.06-.45-.18-.12-.12-.18-.27-.18-.45V5.68c0-.18.06-.33.18-.45.12-.14.27-.21.45-.21h2.14c.19,0,.35.06.47.18.12.12.18.28.18.48v1.08c.42-.56.95-.99,1.58-1.29.65-.3,1.39-.45,2.22-.45h1.08c.19,0,.34.06.45.18.12.11.18.26.18.45v1.9c0,.18-.06.33-.18.45-.1.12-.25.18-.45.18h-2.06c-.83,0-1.48.24-1.95.71-.47.48-.71,1.13-.71,1.95v7.26c0,.18-.06.33-.18.45-.12.12-.28.18-.47.18h-2.3Z"></path><path class="cls-2" d="M124.24,19.01c-.9,0-1.73-.18-2.48-.53-.74-.37-1.33-.86-1.77-1.48-.42-.62-.63-1.29-.63-2.03,0-1.2.48-2.17,1.45-2.9.97-.74,2.3-1.24,3.99-1.51l3.62-.53v-.55c0-.77-.19-1.36-.58-1.74-.39-.39-1.01-.58-1.88-.58-.58,0-1.06.11-1.43.34-.35.21-.63.42-.85.63-.21.23-.35.38-.42.45-.07.21-.2.32-.4.32h-2.03c-.16,0-.3-.05-.42-.16-.11-.11-.16-.25-.16-.42.02-.44.23-.94.63-1.51.42-.56,1.07-1.05,1.93-1.45.86-.4,1.92-.61,3.17-.61,2.08,0,3.59.47,4.54,1.4.95.93,1.43,2.16,1.43,3.67v8.29c0,.18-.06.33-.18.45-.11.12-.26.18-.45.18h-2.14c-.18,0-.33-.06-.45-.18-.12-.12-.18-.27-.18-.45v-1.03c-.39.56-.94,1.03-1.66,1.4-.7.35-1.58.53-2.64.53ZM125.14,16.51c.97,0,1.76-.32,2.38-.95.62-.63.92-1.56.92-2.77v-.55l-2.64.42c-1.02.16-1.8.41-2.32.77-.51.35-.77.78-.77,1.29,0,.56.24,1,.71,1.32.48.32,1.05.48,1.72.48Z"></path><path class="cls-2" d="M135.07,18.75c-.18,0-.33-.06-.45-.18-.12-.12-.19-.27-.19-.45V.63c0-.19.06-.34.19-.45.12-.12.27-.18.45-.18h2.19c.19,0,.34.06.45.18.12.11.18.26.18.45v17.48c0,.18-.06.33-.18.45-.1.12-.25.18-.45.18h-2.19Z"></path><path class="cls-1" d="M17.37.83c.62-.64,1.63-.64,2.25,0,.62.64.62,1.68,0,2.32l-15.13,15.62H0L17.37.83ZM17.53,18.77l15.1-15.59c.62-.64.62-1.68,0-2.32-.62-.64-1.63-.64-2.25,0L13.03,18.77h4.49ZM11.03,18.77l13.81-14.26c.62-.64.62-1.68,0-2.32-.62-.64-1.63-.64-2.25,0L6.53,18.77h4.5Z"></path></svg>