<svg xmlns="http://www.w3.org/2000/svg" id="Layer_1" viewBox="0 0 1004.96 441.63"><defs><style>.cls-1{fill:#fff;}</style></defs><path class="cls-1" d="M113.66,202.37V3.41h65.37c19.7,0,35.62,5.78,47.75,17.34,12.12,11.56,18.19,26.43,18.19,44.62,0,15.16-3.89,28-11.65,38.51-7.77,10.52-18.67,17.58-32.69,21.17l49.74,77.31h-39.79l-47.18-75.04h-15.64v75.04h-34.1ZM174.76,94.93c11.18,0,19.9-2.51,26.15-7.53,6.25-5.02,9.38-12.37,9.38-22.03s-3.13-17.01-9.38-22.03c-6.25-5.01-14.98-7.53-26.15-7.53h-27v59.12h27Z"></path><path class="cls-1" d="M314.14,433.67l73.05-92.66c.57-.57,2.27-2.6,5.12-6.11,2.84-3.51,4.97-6.35,6.39-8.53,1.42-2.17,3.22-5.12,5.4-8.81,2.18-3.7,3.74-7.53,4.69-11.51.95-3.98,1.42-8.05,1.42-12.22,0-8.34-2.7-15.54-8.1-21.6-5.4-6.06-12.56-9.1-21.46-9.1-5.5,0-10.47.99-14.92,2.98-4.46,1.99-7.92,4.4-10.38,7.25-2.46,2.84-4.5,5.69-6.11,8.53-1.61,2.84-2.7,5.31-3.27,7.39l-.85,2.85-30.42-11.08c.38-1.32.95-3.13,1.71-5.4.75-2.27,2.85-6.25,6.25-11.94,3.41-5.69,7.34-10.71,11.8-15.06,4.45-4.36,10.8-8.34,19.04-11.94,8.24-3.6,17.29-5.4,27.15-5.4,20.46,0,36.19,5.92,47.18,17.76,10.99,11.84,16.48,26.57,16.48,44.2s-5.78,33.16-17.34,48.89l-45.76,59.13h63.95v32.4h-131.03Z"></path><path class="cls-1" d="M698.12,433.67l73.05-92.66c.57-.57,2.27-2.6,5.12-6.11,2.84-3.51,4.97-6.35,6.39-8.53,1.42-2.17,3.22-5.12,5.4-8.81,2.18-3.7,3.74-7.53,4.69-11.51.95-3.98,1.42-8.05,1.42-12.22,0-8.34-2.7-15.54-8.1-21.6-5.4-6.06-12.56-9.1-21.46-9.1-5.5,0-10.47.99-14.92,2.98-4.46,1.99-7.92,4.4-10.38,7.25-2.46,2.84-4.5,5.69-6.11,8.53-1.61,2.84-2.7,5.31-3.27,7.39l-.85,2.85-30.42-11.08c.38-1.32.95-3.13,1.71-5.4.75-2.27,2.85-6.25,6.25-11.94,3.41-5.69,7.34-10.71,11.8-15.06,4.45-4.36,10.8-8.34,19.04-11.94,8.24-3.6,17.29-5.4,27.15-5.4,20.46,0,36.19,5.92,47.18,17.76,10.99,11.84,16.48,26.57,16.48,44.2s-5.78,33.16-17.34,48.89l-45.76,59.13h63.95v32.4h-131.03Z"></path><path class="cls-1" d="M903.48,424.01l36.38-58.84c-2.47.57-4.74.85-6.82.85-19.71,0-35.86-6.78-48.46-20.33-12.6-13.55-18.9-29.22-18.9-47.04s6.49-33.49,19.47-47.04c12.98-13.55,29.7-20.32,50.17-20.32s37.19,6.73,50.17,20.18c12.98,13.46,19.47,28.99,19.47,46.61,0,13.07-3.79,26.82-11.37,41.21l-61.68,102.32-28.42-17.62ZM910.17,324.38c6.72,6.54,15.11,9.81,25.15,9.81s18.43-3.27,25.16-9.81c6.72-6.54,10.09-15.11,10.09-25.72s-3.37-19.18-10.09-25.72c-6.73-6.54-15.11-9.81-25.16-9.81s-18.43,3.27-25.15,9.81c-6.73,6.54-10.09,15.11-10.09,25.72s3.36,19.18,10.09,25.72Z"></path><path class="cls-1" d="M286.77,356.75h-66.34v21.85h-12.91v-57.28h12.91v21.85h66.34v13.58Z"></path><path class="cls-1" d="M79.17,181.14H12.89v21.83H0v-57.23h12.89v21.83h66.27v13.57Z"></path><path class="cls-1" d="M32.23,86.14H0v-13.57h79.17v13.57h-34.04v33.82h34.04v13.57H0v-13.57h32.23v-33.82Z"></path><path class="cls-1" d="M12.89,40h19.23V8.33h12.89v31.67h21.26V4.94h12.89v48.63H0V5.62h12.89v34.38Z"></path><path class="cls-1" d="M283.09,254.21l-8.88,12.54c.66,2.36,1.01,4.88,1.01,7.59,0,3.89-.68,7.41-2.04,10.57-1.36,3.16-3.4,5.96-6.11,8.39-1.36,1.22-2.79,2.28-4.3,3.19-4.53,2.74-9.74,4.11-15.62,4.11-.98,0-1.94-.04-2.89-.11-1.89-.15-3.7-.46-5.43-.91s-3.4-1.06-4.98-1.83c-2.38-1.14-4.58-2.62-6.62-4.45-2.72-2.43-4.76-5.23-6.11-8.39-1.36-3.16-2.04-6.68-2.04-10.57s.68-7.41,2.04-10.57c1.36-3.16,3.4-5.96,6.11-8.39,2.04-1.83,4.25-3.31,6.62-4.45,1.58-.76,3.25-1.37,4.98-1.83.63-.17,1.28-.29,1.93-.41l10.11-14.27c-1.22-.09-2.45-.15-3.72-.15-10.3,0-19.07,2.9-26.31,8.71-1.03.83-2.04,1.72-3.01,2.67-7.77,7.59-11.66,17.15-11.66,28.7s3.89,21.11,11.66,28.7c.97.95,1.97,1.84,3.01,2.67,7.24,5.81,16.01,8.71,26.31,8.71,4.42,0,8.55-.53,12.4-1.6,2.57-.71,5.01-1.66,7.33-2.84,3.48-1.78,6.67-4.09,9.59-6.93,7.77-7.58,11.66-17.15,11.66-28.7,0-7.56-1.7-14.26-5.03-20.12Z"></path><path class="cls-1" d="M199.31,274.34c0-4.52.57-8.77,1.61-12.8l-197.37.51.06,24.02,196.93-.51c-.79-3.56-1.23-7.29-1.23-11.22Z"></path><path class="cls-1" d="M294.55,184.63l-54.41,76.81-9.31.02c-1.47,1.52-2.61,3.17-3.41,5.02-.98,2.28-1.48,4.93-1.48,7.86s.5,5.58,1.48,7.86c.5,1.17,1.14,2.25,1.9,3.28l17.07-.04c3.88-.01,7.53-1.9,9.77-5.07l10.57-14.92h0s1.89-2.67,1.89-2.67l8.88-12.54,6.23-8.8h0s30.11-42.49,30.11-42.49c-6.87-3.94-13.31-8.7-19.28-14.33Z"></path><path class="cls-1" d="M498.98,255.73c4.13-4.23,8.5-8.02,13.09-11.4l-134.96-150.84c-2.45-2.74-5.97-4.19-9.63-3.98-3.67.21-6.99,2.05-9.12,5.05l-35.62,50.28c.93,1.18,1.85,2.37,2.87,3.51,4.62,5.16,9.8,9.13,15.52,12.08l28.12-39.69,125.21,139.94c1.45-1.68,2.94-3.33,4.51-4.95Z"></path><path class="cls-1" d="M686.05,209.24h-6.86v-23.35l-105,127.86-30.45-34.03c-3.68,2.49-7.12,5.44-10.29,8.98-2.41,2.69-4.49,5.51-6.37,8.43l38.55,43.08c2.28,2.54,5.54,4,8.95,4v3.43l.22-3.43c3.54-.07,6.83-1.67,9.06-4.39l107.23-130.58h-5.04Z"></path><path class="cls-1" d="M855.1,89.49h-91.07c-3.61,0-6.99,1.6-9.28,4.39l-27.73,33.77v35.46h1.96l40.74-49.6h220.61v-24.02h-135.21Z"></path><path class="cls-1" d="M400.13,165.53c-9.28,5.22-19.95,7.85-32.03,7.85-19.52,0-35.39-6.82-47.61-20.47-12.22-13.64-18.33-30.32-18.33-50.02s6.11-36.38,18.33-50.02c12.22-13.65,28.09-20.47,47.61-20.47s35.39,6.82,47.61,20.47c12.22,13.64,18.33,30.32,18.33,50.02,0,12.99-2.71,24.63-8.02,34.98l24.03,26.85c12.44-17.33,18.67-37.94,18.67-61.83,0-29.56-9.52-54.1-28.56-73.62C421.12,9.76,397.1,0,368.11,0s-53.01,9.76-72.05,29.27c-19.05,19.52-28.57,44.06-28.57,73.62s9.52,54.1,28.57,73.62c19.04,19.52,43.06,29.27,72.05,29.27,20.75,0,38.94-5.03,54.59-15.03l-22.57-25.22Z"></path><path class="cls-1" d="M630.69,293.6c7.43,11.68,11.2,25.17,11.2,40.54,0,19.71-6.11,36.38-18.33,50.02-12.22,13.65-28.1,20.47-47.61,20.47s-35.39-6.82-47.61-20.47c-12.22-13.64-18.33-30.32-18.33-50.02s6.11-36.38,18.33-50.02c12.22-13.65,28.09-20.47,47.61-20.47,9.68,0,18.47,1.69,26.36,5.05l21.6-26.3c-14.1-7.42-30.08-11.15-47.96-11.15-28.99,0-53.01,9.76-72.05,29.27-19.05,19.52-28.57,44.06-28.57,73.62s9.52,54.1,28.57,73.62c19.04,19.52,43.06,29.27,72.05,29.27s53.01-9.76,72.05-29.27c19.04-19.51,28.56-44.06,28.56-73.62,0-26.75-7.82-49.36-23.41-67.89l-22.46,27.35Z"></path><path class="cls-1" d="M811.98,120.37c-2.58,11.22-7.71,21.23-15.51,29.99-11.65,13.08-26.86,19.62-45.62,19.62h-30.7V35.81h30.7c18.76,0,33.97,6.5,45.62,19.47,7.19,8.01,12.15,17.13,14.9,27.34h35.59c-3.4-19.88-12.03-36.91-25.9-51.07-18.38-18.76-41.97-28.14-70.78-28.14h-64.23v198.96h64.23c28.8,0,52.39-9.38,70.78-28.14,14.51-14.82,23.28-32.78,26.33-53.86h-35.4Z"></path><path class="cls-1" d="M611.76,155.19l18.19,47.18h26.82l5.14-6.26L587.03,3.41h-34.68l-74.67,192.19,6.06,6.78h25.69l18.19-47.18h84.13ZM569.69,46.33l29.84,77.6h-59.69l29.84-77.6Z"></path></svg>